<svg xmlns="http://www.w3.org/2000/svg" width="512" height="512" viewBox="0 0 512 512">
  <rect width="512" height="512" fill="#2563eb"/>
  <path d="M152 356 V146 a16 16 0 0 1 16 -16 h176 a16 16 0 0 1 16 16 V356
           l-13 18 l-13 -18 l-13 18 l-13 -18 l-13 18 l-13 -18 l-13 18 l-13 -18
           l-13 18 l-13 -18 l-13 18 l-13 -18 l-13 18 l-13 -18 l-13 18 l-13 -18 Z"
        fill="#ffffff"/>
  <line x1="186" y1="188" x2="326" y2="188" stroke="#2563eb" stroke-width="16" stroke-linecap="round"/>
  <line x1="186" y1="222" x2="326" y2="222" stroke="#2563eb" stroke-width="16" stroke-linecap="round"/>
  <line x1="186" y1="256" x2="300" y2="256" stroke="#2563eb" stroke-width="16" stroke-linecap="round"/>
  <text x="256" y="330" font-family="Helvetica, Arial, sans-serif" font-size="70" font-weight="600" fill="#2563eb" text-anchor="middle">€</text>
</svg>
